<?xml version="1.0" standalone="no"?>
<!DOCTYPE svg PUBLIC "-//W3C//DTD SVG 20010904//EN"
 "http://www.w3.org/TR/2001/REC-SVG-20010904/DTD/svg10.dtd">
<svg version="1.0" xmlns="http://www.w3.org/2000/svg"
 width="1024.000000pt" height="1024.000000pt" viewBox="0 0 1024.000000 1024.000000"
 preserveAspectRatio="xMidYMid meet">

<g transform="translate(0.000000,1024.000000) scale(0.100000,-0.100000)"
fill="#000000" stroke="none">
<path d="M3410 8273 c-19 -2 -71 -13 -115 -24 -278 -73 -517 -316 -606 -615
-35 -118 -40 -405 -37 -2244 l3 -1735 23 -37 c42 -67 123 -99 198 -79 58 16
162 87 543 374 189 143 365 269 390 281 l46 21 1545 5 c1194 5 1555 9 1590 18
74 21 201 89 270 145 157 128 266 303 311 502 17 75 19 165 19 1551 0 1446 0
1473 -20 1537 -43 139 -147 247 -278 287 -63 20 -96 20 -1956 18 -1040 0
-1907 -3 -1926 -5z m3772 -350 c16 -7 37 -27 48 -45 20 -33 20 -46 18 -1468
l-3 -1435 -26 -67 c-54 -138 -148 -245 -266 -301 l-68 -32 -1565 -5 -1565 -5
-56 -23 c-77 -31 -132 -68 -434 -295 l-260 -195 -3 1706 c-2 1674 -2 1708 17
1772 52 171 197 322 361 375 30 10 105 21 165 25 61 4 898 7 1860 6 1357 -1
1756 -4 1777 -13z"/>
<path d="M3546 7425 c-48 -17 -78 -52 -108 -125 l-23 -55 -2 -915 c-2 -751 0
-928 12 -987 23 -121 72 -190 150 -213 29 -8 181 -10 530 -8 473 3 491 4 525
24 19 11 45 35 58 54 53 79 52 57 52 1094 0 613 -4 974 -10 997 -15 54 -50
100 -95 123 -39 20 -55 21 -545 23 -414 2 -512 0 -544 -12z"/>
<path d="M5120 7402 c-47 -23 -70 -71 -70 -150 0 -88 19 -128 72 -152 41 -19
72 -20 828 -20 538 0 797 4 824 11 22 6 52 25 68 41 26 28 28 36 28 115 0 62
-5 93 -17 114 -36 61 -3 59 -890 59 -749 0 -811 -1 -843 -18z"/>
<path d="M5114 6701 c-54 -33 -64 -57 -64 -146 0 -91 11 -120 59 -152 l34 -23
809 0 c878 0 852 -2 896 55 19 24 22 41 22 115 0 74 -3 91 -22 115 -44 57 -18
55 -895 55 -778 0 -809 -1 -839 -19z"/>
<path d="M5145 6013 c-33 -9 -65 -35 -81 -64 -22 -44 -19 -166 6 -207 39 -64
8 -62 887 -62 762 0 800 1 840 19 56 26 73 61 73 155 0 84 -9 112 -48 141 -26
20 -44 20 -842 21 -448 1 -824 0 -835 -3z"/>
<path d="M5120 5342 c-47 -23 -70 -71 -70 -150 0 -75 17 -121 56 -147 28 -19
52 -20 856 -20 823 0 827 0 855 21 41 31 53 62 54 151 1 92 -12 122 -66 147
-29 14 -124 16 -842 16 -749 0 -811 -1 -843 -18z"/>
<path d="M1377 2866 c-59 -16 -114 -59 -141 -111 -27 -53 -28 -147 0 -200 33
-64 74 -86 257 -140 48 -14 97 -35 107 -45 29 -29 25 -74 -9 -112 -25 -28 -35
-32 -92 -35 -79 -5 -123 18 -147 78 l-17 39 -70 -2 -70 -3 3 -40 c8 -92 88
-174 189 -195 140 -29 281 9 340 92 76 108 71 212 -14 289 -41 37 -68 49 -213
94 -100 31 -130 55 -130 102 0 90 180 100 225 13 15 -29 18 -30 85 -30 80 0
84 6 51 82 -48 113 -199 165 -354 124z"/>
<path d="M8655 2874 c-126 -32 -197 -110 -197 -215 0 -127 55 -180 247 -234
139 -40 159 -52 157 -105 -2 -69 -57 -105 -149 -98 -49 4 -60 9 -90 41 -18 20
-33 46 -33 57 0 18 -6 20 -75 20 l-75 0 0 -32 c1 -71 57 -151 135 -190 56 -29
192 -36 269 -14 146 43 227 217 155 335 -29 48 -94 88 -188 116 -156 46 -193
70 -193 122 0 70 126 102 191 48 16 -14 33 -35 36 -45 5 -17 16 -20 74 -20 37
0 70 3 74 6 9 9 -18 89 -41 121 -11 16 -44 42 -73 58 -43 23 -68 29 -129 31
-41 2 -84 1 -95 -2z"/>
<path d="M2075 2861 c-9 -16 -255 -737 -255 -750 0 -8 22 -11 73 -9 l72 3 30
88 30 87 130 0 130 0 30 -87 30 -88 80 0 c66 0 79 3 77 15 -3 13 -201 578
-248 708 l-16 42 -78 0 c-43 0 -81 -4 -85 -9z m82 -449 c-49 -1 -91 -1 -93 1
-2 2 17 66 43 143 l46 139 47 -140 47 -140 -90 -3z"/>
<path d="M2595 2857 c-3 -6 -4 -179 -3 -382 l3 -370 73 -3 72 -3 0 166 0 165
163 -2 162 -3 3 -163 2 -163 68 3 67 3 0 380 0 380 -68 0 -69 0 1 -152 2 -153
-166 0 -165 0 0 155 0 155 -70 0 c-47 0 -72 -4 -75 -13z"/>
<path d="M3575 2860 c-12 -19 -255 -732 -255 -747 0 -11 16 -13 72 -11 l73 3
28 88 28 88 131 -3 131 -3 30 -87 29 -88 79 0 c54 0 79 4 79 12 0 13 1 11
-146 428 -58 162 -108 302 -113 310 -10 19 -155 27 -166 10z m82 -448 c-49 -1
-91 -1 -93 1 -3 3 54 186 83 267 3 8 27 -48 53 -125 l47 -140 -90 -3z"/>
<path d="M4102 2489 l3 -384 200 0 c197 0 201 0 255 27 145 71 162 277 29 353
l-36 20 30 24 c45 37 71 104 64 163 -9 71 -38 112 -103 144 -52 25 -64 27
-249 32 l-195 5 2 -384z m355 225 c39 -29 43 -81 9 -120 -23 -28 -29 -29 -120
-32 l-96 -4 0 92 0 92 89 -4 c72 -2 95 -7 118 -24z m34 -322 c31 -34 36 -66
18 -105 -18 -40 -48 -50 -156 -55 l-103 -5 0 103 0 102 106 -4 c105 -4 106 -4
135 -36z"/>
<path d="M4992 2858 c-18 -23 -260 -743 -253 -751 5 -4 39 -7 76 -5 l68 3 30
88 29 88 131 -3 130 -3 26 -75 c14 -42 30 -81 34 -88 10 -15 157 -17 157 -2 0
14 -123 370 -237 690 -25 68 -28 70 -108 70 -46 0 -76 -5 -83 -12z m85 -446
c-49 -1 -92 -1 -94 2 -5 4 72 249 85 271 3 5 27 -54 52 -130 l47 -140 -90 -3z"/>
<path d="M5400 2800 l0 -69 106 -3 106 -3 -2 -189 c0 -104 2 -245 6 -313 l7
-124 66 3 66 3 3 312 2 312 108 3 107 3 0 65 0 65 -287 3 -288 2 0 -70z"/>
<path d="M6095 2857 c-3 -6 -4 -179 -3 -382 l3 -370 70 0 70 0 0 253 c0 215 2
251 13 235 14 -18 204 -319 274 -433 l38 -61 77 3 78 3 3 383 2 383 -72 -3
-73 -3 0 -258 c0 -141 -2 -257 -5 -257 -3 1 -59 91 -125 201 -66 111 -137 227
-157 260 l-37 59 -76 0 c-51 0 -77 -4 -80 -13z"/>
<path d="M6857 2864 c-4 -4 -7 -178 -7 -386 l0 -378 253 2 252 3 3 67 4 68
-179 2 -178 3 0 90 0 90 160 1 160 1 3 66 3 67 -166 0 -165 0 0 85 0 85 173 2
172 3 0 65 0 65 -241 3 c-132 1 -243 -1 -247 -4z"/>
<path d="M7416 2843 c3 -16 35 -138 70 -273 35 -135 76 -294 91 -355 l28 -110
77 -3 76 -3 11 33 c5 18 33 116 61 218 76 274 77 277 83 260 3 -8 27 -96 52
-195 26 -99 54 -209 63 -245 l17 -65 73 -3 c86 -3 73 -23 136 208 24 91 67
249 95 351 28 102 51 191 51 197 0 8 -25 12 -74 12 -62 0 -75 -3 -80 -17 -3
-10 -21 -91 -41 -181 -20 -89 -38 -168 -40 -175 -2 -7 -11 -48 -21 -92 -14
-69 -18 -77 -26 -55 -10 27 -96 332 -125 445 l-18 70 -63 3 c-60 3 -62 2 -73
-25 -13 -33 -124 -433 -134 -482 -10 -45 -18 -28 -40 74 -9 44 -19 89 -21 100
-2 11 -7 34 -10 50 -3 17 -12 64 -21 105 -8 41 -17 88 -20 104 -12 74 -15 76
-103 76 l-80 0 6 -27z"/>
</g>
</svg>
